<?xml version="1.0"?>
<svg xmlns="http://www.w3.org/2000/svg" width="1052.362" height="744.094" viewBox="0 0 1052.362 744.094">
  <path d="M524.021 538.401c-33.84-1.23-54.784-11.264-60.113-28.8l-.62-2.038-.086-34.378c-.1-39.346-.065-40.143 2.03-46.409 3.821-11.432 12.859-18.803 26.993-22.015l3.125-.71 38.862-.173c27.844-.123 39.388-.263 40.716-.492 7.782-1.342 12.887-3.35 17.68-6.958 5.725-4.309 10.45-11.684 12.562-19.607 1.587-5.95 1.544-5.3 1.716-26.201l.159-19.432h27.991l2.718.76c14.561 4.066 25.133 17.861 29.634 38.67 1.73 8.004 1.749 8.3 1.752 28.718.003 19.87-.006 20.044-1.394 26.562-1.365 6.406-3.15 11.62-5.82 16.985-5.383 10.822-13.32 18.146-23.357 21.553-5.733 1.947-.934 1.784-57.342 1.945l-50.82.146v9.24l33.7.135 33.698.136.136 16.578c.074 9.118.042 17.36-.073 18.316-.277 2.313-1.258 5.058-2.662 7.449-1.446 2.461-5.835 6.864-8.815 8.841-9.05 6.007-22.85 9.668-41.036 10.888-6.12.411-14.785.53-21.334.291zm46.743-21.481c6.496-1.053 11.146-7.41 10.075-13.773-.884-5.25-4.936-9.309-10.155-10.174-7.967-1.32-15.213 5.996-13.795 13.93 1.031 5.77 5.659 9.833 11.701 10.274.225.016 1.203-.1 2.174-.257zm-144.8-49.035c-7.645-1.39-15.172-6.023-20.492-12.611-10.075-12.48-15.161-33.284-14.523-59.406.398-16.278 2.832-28.362 7.783-38.641 6.38-13.25 15.915-21.108 28.787-23.725 2.819-.573 2.96-.574 52.615-.554 27.384.01 49.99-.058 50.235-.152.39-.15.446-.755.446-4.762 0-2.525-.03-4.62-.068-4.656-.037-.036-15.232-.128-33.766-.204l-33.699-.138-.07-17.515c-.076-19.182-.092-18.96 1.55-22.483 5.694-12.213 22.465-19.633 49.34-21.83 1.943-.158 7.202-.36 11.686-.448 29.753-.583 51.579 4.858 63.051 15.717 1.271 1.203 2.928 3 3.681 3.99 1.713 2.256 3.846 6.561 4.663 9.413l.622 2.175v36.144c0 33.739-.033 36.316-.492 38.726-.592 3.11-2.014 7.48-3.2 9.83-4.103 8.14-11.665 14.004-21.688 16.82-6.509 1.829-3.553 1.709-46.637 1.896-42.787.185-40.202.086-46.2 1.78-11.65 3.294-20.21 12.368-23.687 25.114-1.563 5.73-1.528 5.195-1.7 26.225l-.159 19.567-13.045.045c-9.847.034-13.532-.044-15.034-.317zm71.23-162.58c4.946-2.323 7.925-7.77 7.03-12.852-.827-4.69-4.046-8.431-8.415-9.78-6.983-2.158-14.27 2.293-15.558 9.502-1.048 5.864 2.343 11.572 8.079 13.598 1.281.453 2.105.545 4.303.48 2.393-.071 2.937-.184 4.562-.948z" fill="#fed142"/>
  <path d="M425.963 467.885c-7.644-1.39-15.171-6.023-20.49-12.611-10.076-12.48-15.162-33.284-14.524-59.406.398-16.278 2.832-28.362 7.783-38.641 6.38-13.25 15.915-21.108 28.787-23.725 2.819-.573 2.96-.574 52.615-.554 27.384.01 49.99-.058 50.235-.152.39-.15.446-.755.446-4.762 0-2.525-.03-4.62-.068-4.656-.037-.036-15.232-.128-33.766-.204l-33.699-.138-.07-17.515c-.076-19.182-.092-18.96 1.55-22.483 5.694-12.213 22.465-19.633 49.34-21.83 1.943-.158 7.202-.36 11.686-.448 29.753-.583 51.579 4.858 63.051 15.717 1.271 1.203 2.928 3 3.681 3.99 1.713 2.256 3.846 6.561 4.663 9.413l.622 2.175v36.144c0 33.739-.033 36.316-.492 38.726-.592 3.11-2.014 7.48-3.2 9.83-4.103 8.14-11.665 14.004-21.688 16.82-6.509 1.829-3.553 1.709-46.637 1.896-42.787.185-40.202.086-46.2 1.78-11.65 3.294-20.21 12.368-23.687 25.114-1.563 5.73-1.528 5.195-1.7 26.225l-.159 19.567-13.045.045c-9.847.034-13.532-.044-15.034-.317zm71.232-162.58c4.945-2.323 7.924-7.77 7.028-12.852-.826-4.69-4.045-8.431-8.414-9.78-6.983-2.158-14.27 2.293-15.558 9.502-1.048 5.864 2.343 11.572 8.079 13.598 1.281.453 2.105.545 4.303.48 2.393-.071 2.937-.184 4.562-.948z" fill="#3571a3"/>
</svg>
